<?xml version="1.0" encoding="UTF-8"?><svg id="Layer_1" xmlns="http://www.w3.org/2000/svg" viewBox="0 0 504.46 107.86"><defs><style>.cls-1{fill:#676867;}.cls-2,.cls-3{fill:#cb2026;}.cls-4{fill:#231f20;}.cls-3{fill-rule:evenodd;}</style></defs><g><path class="cls-4" d="M147.23,38.52h-7.86v5.07h8.77v3.96h-13.62V26.2h13.18v3.96h-8.33v4.43h7.86v3.93Z"/><path class="cls-4" d="M151.76,26.2h4.85v17.3h8.49v4.05h-13.34V26.2Z"/><path class="cls-4" d="M180.97,38.52h-7.86v5.07h8.77v3.96h-13.62V26.2h13.18v3.96h-8.33v4.43h7.86v3.93Z"/><path class="cls-4" d="M201.18,46.95c-.89,.44-2.88,.92-5.48,.92-7.38,0-11.18-4.59-11.18-10.67,0-7.29,5.19-11.34,11.66-11.34,2.5,0,4.4,.51,5.26,.95l-.98,3.83c-.98-.41-2.34-.79-4.05-.79-3.83,0-6.81,2.31-6.81,7.06,0,4.28,2.53,6.97,6.84,6.97,1.46,0,3.07-.32,4.02-.7l.73,3.77Z"/><path class="cls-4" d="M209.23,30.25h-5.73v-4.05h16.41v4.05h-5.83v17.3h-4.85V30.25Z"/><path class="cls-4" d="M222.78,26.48c1.55-.25,3.86-.44,6.43-.44,3.17,0,5.39,.48,6.91,1.68,1.27,1.01,1.96,2.5,1.96,4.47,0,2.72-1.93,4.59-3.77,5.26v.1c1.49,.6,2.31,2.03,2.85,3.99,.67,2.41,1.33,5.2,1.74,6.02h-4.94c-.35-.6-.86-2.34-1.49-4.97-.57-2.66-1.49-3.39-3.45-3.42h-1.46v8.39h-4.78V26.48Zm4.78,9.19h1.9c2.41,0,3.83-1.2,3.83-3.07,0-1.96-1.33-2.95-3.55-2.98-1.17,0-1.84,.09-2.19,.16v5.89Z"/><path class="cls-4" d="M246.73,26.2v21.35h-4.85V26.2h4.85Z"/><path class="cls-4" d="M266.91,46.95c-.89,.44-2.88,.92-5.48,.92-7.38,0-11.18-4.59-11.18-10.67,0-7.29,5.19-11.34,11.66-11.34,2.5,0,4.4,.51,5.26,.95l-.98,3.83c-.98-.41-2.34-.79-4.05-.79-3.83,0-6.81,2.31-6.81,7.06,0,4.28,2.53,6.97,6.84,6.97,1.46,0,3.07-.32,4.02-.7l.73,3.77Z"/><path class="cls-4" d="M275.68,42.07l-1.52,5.48h-5l6.53-21.35h6.33l6.62,21.35h-5.19l-1.65-5.48h-6.11Zm5.42-3.61l-1.33-4.53c-.38-1.27-.76-2.85-1.08-4.12h-.06c-.32,1.27-.63,2.88-.98,4.12l-1.27,4.53h4.72Z"/><path class="cls-4" d="M291.81,26.2h4.85v17.3h8.49v4.05h-13.34V26.2Z"/><path class="cls-4" d="M328.62,47.55c-.44-.48-.89-.95-1.39-1.52-1.39,1.08-3.33,1.87-5.86,1.87-5.16,0-7.44-3.07-7.44-6.05,0-2.82,1.62-4.85,4.05-6.11v-.13c-.92-1.01-1.62-2.6-1.62-4.12,0-2.69,2.12-5.64,6.4-5.64,3.29,0,5.8,1.93,5.8,5,0,2.15-1.27,3.99-4.21,5.48l-.03,.13c1.24,1.36,2.53,2.91,3.58,3.99,.86-1.33,1.52-3.29,1.81-5.2h4.31c-.57,3.23-1.65,5.99-3.55,8.11,1.2,1.36,2.44,2.76,3.77,4.18h-5.61Zm-3.64-4.21c-1.33-1.33-3.07-3.26-4.81-5.23-.89,.63-1.68,1.55-1.68,2.95,0,1.81,1.36,3.36,3.55,3.36,1.27,0,2.31-.48,2.95-1.08Zm-4.31-12.29c0,1.08,.51,2.03,1.46,3.07,1.55-1.08,2.34-1.9,2.34-3.14,0-1.01-.6-2.12-1.87-2.12s-1.93,1.08-1.93,2.19Z"/><path class="cls-4" d="M359.22,46.95c-.89,.44-2.88,.92-5.48,.92-7.38,0-11.18-4.59-11.18-10.67,0-7.29,5.2-11.34,11.66-11.34,2.5,0,4.4,.51,5.26,.95l-.98,3.83c-.98-.41-2.34-.79-4.05-.79-3.83,0-6.81,2.31-6.81,7.06,0,4.28,2.53,6.97,6.84,6.97,1.46,0,3.07-.32,4.02-.7l.73,3.77Z"/><path class="cls-4" d="M381.3,36.65c0,7-4.25,11.25-10.49,11.25s-10.04-4.78-10.04-10.87c0-6.4,4.09-11.18,10.39-11.18s10.14,4.91,10.14,10.8Zm-15.43,.29c0,4.18,1.96,7.13,5.19,7.13s5.13-3.1,5.13-7.25c0-3.83-1.84-7.13-5.16-7.13s-5.16,3.1-5.16,7.25Z"/><path class="cls-4" d="M402.84,39.37c-.09-2.57-.19-5.67-.19-8.77h-.1c-.67,2.72-1.55,5.77-2.38,8.27l-2.6,8.33h-3.77l-2.28-8.27c-.7-2.5-1.43-5.54-1.93-8.33h-.06c-.13,2.88-.22,6.18-.38,8.84l-.38,8.11h-4.47l1.36-21.35h6.43l2.09,7.13c.67,2.47,1.33,5.13,1.81,7.63h.09c.6-2.47,1.33-5.29,2.03-7.67l2.28-7.1h6.3l1.17,21.35h-4.72l-.32-8.17Z"/><path class="cls-4" d="M411.9,26.48c1.49-.25,3.58-.44,6.53-.44s5.1,.57,6.53,1.71c1.36,1.08,2.28,2.85,2.28,4.94s-.7,3.86-1.96,5.07c-1.65,1.55-4.09,2.25-6.94,2.25-.63,0-1.2-.03-1.65-.1v7.63h-4.78V26.48Zm4.78,9.69c.41,.09,.92,.13,1.62,.13,2.57,0,4.15-1.3,4.15-3.48,0-1.96-1.36-3.14-3.77-3.14-.98,0-1.65,.1-2,.19v6.3Z"/><path class="cls-4" d="M435.43,26.2v12.29c0,3.67,1.39,5.54,3.87,5.54s3.93-1.77,3.93-5.54v-12.29h4.82v11.97c0,6.59-3.33,9.73-8.9,9.73s-8.55-2.98-8.55-9.79v-11.91h4.85Z"/><path class="cls-4" d="M456.66,30.25h-5.73v-4.05h16.41v4.05h-5.83v17.3h-4.85V30.25Z"/><path class="cls-4" d="M482.92,38.52h-7.86v5.07h8.77v3.96h-13.62V26.2h13.18v3.96h-8.33v4.43h7.86v3.93Z"/><path class="cls-4" d="M487.45,26.48c1.55-.25,3.86-.44,6.43-.44,3.17,0,5.38,.48,6.91,1.68,1.27,1.01,1.96,2.5,1.96,4.47,0,2.72-1.93,4.59-3.77,5.26v.1c1.49,.6,2.31,2.03,2.85,3.99,.67,2.41,1.33,5.2,1.74,6.02h-4.94c-.35-.6-.86-2.34-1.49-4.97-.57-2.66-1.49-3.39-3.45-3.42h-1.46v8.39h-4.78V26.48Zm4.78,9.19h1.9c2.41,0,3.83-1.2,3.83-3.07,0-1.96-1.33-2.95-3.55-2.98-1.17,0-1.84,.09-2.19,.16v5.89Z"/><path class="cls-4" d="M147.23,68.32h-7.86v5.07h8.77v3.96h-13.62v-21.35h13.18v3.96h-8.33v4.43h7.86v3.93Z"/><path class="cls-4" d="M151.76,77.35v-21.35h5.64l4.44,7.82c1.27,2.25,2.53,4.91,3.48,7.32h.1c-.32-2.82-.41-5.7-.41-8.9v-6.24h4.44v21.35h-5.07l-4.56-8.24c-1.27-2.28-2.66-5.04-3.71-7.54l-.1,.03c.13,2.82,.19,5.83,.19,9.31v6.43h-4.43Z"/><path class="cls-4" d="M191.77,76.37c-1.49,.51-4.31,1.2-7.13,1.2-3.9,0-6.72-.98-8.68-2.88-1.96-1.84-3.04-4.62-3.01-7.76,.03-7.1,5.19-11.15,12.2-11.15,2.76,0,4.88,.54,5.92,1.04l-1.01,3.87c-1.17-.51-2.63-.92-4.97-.92-4.02,0-7.06,2.28-7.06,6.91s2.76,7,6.72,7c1.11,0,2-.13,2.38-.32v-4.47h-3.29v-3.77h7.95v11.25Z"/><path class="cls-4" d="M200.71,56v21.35h-4.85v-21.35h4.85Z"/><path class="cls-4" d="M205.2,77.35v-21.35h5.64l4.44,7.82c1.27,2.25,2.53,4.91,3.48,7.32h.1c-.32-2.82-.41-5.7-.41-8.9v-6.24h4.44v21.35h-5.07l-4.56-8.24c-1.27-2.28-2.66-5.04-3.71-7.54l-.1,.03c.13,2.82,.19,5.83,.19,9.31v6.43h-4.43Z"/><path class="cls-4" d="M240.08,68.32h-7.86v5.07h8.77v3.96h-13.62v-21.35h13.18v3.96h-8.33v4.43h7.86v3.93Z"/><path class="cls-4" d="M257.31,68.32h-7.86v5.07h8.77v3.96h-13.62v-21.35h13.18v3.96h-8.33v4.43h7.86v3.93Z"/><path class="cls-4" d="M261.84,56.28c1.55-.25,3.86-.44,6.43-.44,3.17,0,5.39,.48,6.91,1.68,1.27,1.01,1.96,2.5,1.96,4.47,0,2.72-1.93,4.59-3.77,5.26v.1c1.49,.6,2.31,2.03,2.85,3.99,.67,2.41,1.33,5.2,1.74,6.02h-4.94c-.35-.6-.86-2.34-1.49-4.97-.57-2.66-1.49-3.39-3.45-3.42h-1.46v8.39h-4.78v-21.07Zm4.78,9.19h1.9c2.41,0,3.83-1.2,3.83-3.07,0-1.96-1.33-2.95-3.55-2.98-1.17,0-1.84,.1-2.19,.16v5.89Z"/><path class="cls-4" d="M285.79,56v21.35h-4.85v-21.35h4.85Z"/><path class="cls-4" d="M290.29,77.35v-21.35h5.64l4.43,7.82c1.27,2.25,2.53,4.91,3.48,7.32h.09c-.32-2.82-.41-5.7-.41-8.9v-6.24h4.43v21.35h-5.07l-4.56-8.24c-1.27-2.28-2.66-5.04-3.71-7.54l-.1,.03c.13,2.82,.19,5.83,.19,9.31v6.43h-4.43Z"/><path class="cls-4" d="M330.3,76.37c-1.49,.51-4.31,1.2-7.13,1.2-3.9,0-6.72-.98-8.68-2.88-1.96-1.84-3.04-4.62-3.01-7.76,.03-7.1,5.2-11.15,12.2-11.15,2.76,0,4.88,.54,5.92,1.04l-1.01,3.87c-1.17-.51-2.63-.92-4.97-.92-4.02,0-7.06,2.28-7.06,6.91s2.76,7,6.72,7c1.11,0,2-.13,2.38-.32v-4.47h-3.29v-3.77h7.95v11.25Z"/></g><g><path class="cls-2" d="M108.68,106.28c-1.05,1.05-2.31,1.58-3.8,1.58s-2.75-.53-3.79-1.58c-1.04-1.05-1.56-2.31-1.56-3.8s.52-2.74,1.57-3.78c1.04-1.04,2.3-1.56,3.77-1.56s2.75,.52,3.8,1.56c1.05,1.04,1.57,2.3,1.57,3.78s-.52,2.75-1.57,3.8Zm-7.05-7.06c-.9,.9-1.34,1.99-1.34,3.26s.45,2.38,1.34,3.29c.9,.91,1.98,1.36,3.26,1.36s2.37-.45,3.26-1.36c.9-.91,1.34-2,1.34-3.29s-.45-2.36-1.34-3.26c-.9-.91-1.99-1.36-3.26-1.36s-2.36,.45-3.26,1.36Zm3.15,.3c.73,0,1.27,.07,1.61,.21,.61,.25,.91,.75,.91,1.49,0,.53-.19,.92-.57,1.16-.2,.13-.49,.23-.85,.28,.46,.07,.8,.27,1.01,.58,.21,.31,.32,.61,.32,.91v.43c0,.14,0,.28,.01,.44s.03,.26,.05,.31l.04,.07h-.97s0-.04-.01-.06c0-.02,0-.04-.01-.06l-.02-.19v-.47c0-.68-.18-1.13-.56-1.34-.22-.13-.6-.19-1.15-.19h-.82v2.31h-1.04v-5.89h2.06Zm1.12,.93c-.26-.15-.68-.22-1.26-.22h-.89v2.13h.94c.44,0,.77-.04,.99-.13,.4-.16,.61-.47,.61-.92,0-.43-.13-.72-.39-.86Z"/><polygon class="cls-3" points="0 0 0 32.05 10.68 32.05 10.68 85.32 32.05 106.54 85.19 106.54 106.55 85.32 106.55 32.05 117.23 32.05 117.23 0 63.95 0 63.95 32.05 74.64 32.05 74.64 74.5 42.6 74.5 42.6 32.05 53.27 32.05 53.27 0 0 0"/></g><g><path class="cls-4" d="M139.32,99.32c0,1.48,0,2.7,.08,3.34,.05,.45,.14,.79,.62,.85,.22,.03,.57,.06,.72,.06,.1,0,.13,.05,.13,.09,0,.08-.08,.12-.26,.12-.88,0-1.88-.05-1.96-.05s-1.09,.05-1.56,.05c-.18,0-.26-.03-.26-.12,0-.05,.03-.09,.13-.09,.14,0,.34-.03,.48-.06,.32-.06,.4-.4,.46-.85,.08-.65,.08-1.86,.08-3.34v-6.52l-2.36,.03c-.99,.02-1.37,.12-1.63,.49-.18,.26-.22,.37-.27,.48-.05,.12-.1,.16-.16,.16-.05,0-.08-.05-.08-.14,0-.16,.32-1.48,.35-1.6,.03-.09,.1-.29,.16-.29,.11,0,.27,.15,.7,.19,.46,.05,1.07,.08,1.26,.08h5.99c.51,0,.88-.03,1.13-.08,.24-.03,.38-.08,.45-.08,.08,0,.08,.09,.08,.19,0,.46-.05,1.53-.05,1.7,0,.14-.05,.2-.11,.2-.08,0-.11-.05-.13-.26l-.02-.17c-.05-.46-.43-.82-1.96-.85l-2.01-.03v6.52Z"/><path class="cls-4" d="M156.14,99.32c0,1.48,0,2.7,.08,3.34,.05,.45,.14,.79,.62,.85,.22,.03,.57,.06,.72,.06,.1,0,.13,.05,.13,.09,0,.08-.08,.12-.26,.12-.88,0-1.88-.05-1.96-.05s-1.09,.05-1.56,.05c-.18,0-.26-.03-.26-.12,0-.05,.03-.09,.13-.09,.14,0,.34-.03,.48-.06,.32-.06,.4-.4,.46-.85,.08-.65,.08-1.86,.08-3.34v-1.62c0-.06-.05-.09-.1-.09h-6.77s-.1,.02-.1,.09v1.62c0,1.48,0,2.7,.08,3.34,.05,.45,.14,.79,.62,.85,.22,.03,.57,.06,.72,.06,.1,0,.13,.05,.13,.09,0,.08-.08,.12-.26,.12-.88,0-1.88-.05-1.96-.05s-1.09,.05-1.56,.05c-.18,0-.26-.03-.26-.12,0-.05,.03-.09,.13-.09,.14,0,.34-.03,.48-.06,.32-.06,.4-.4,.46-.85,.08-.65,.08-1.86,.08-3.34v-2.71c0-2.4,0-2.83-.03-3.33-.03-.52-.16-.77-.69-.88-.13-.03-.4-.05-.54-.05-.06,0-.13-.03-.13-.09,0-.09,.08-.12,.26-.12,.72,0,1.72,.05,1.8,.05s1.09-.05,1.56-.05c.18,0,.26,.03,.26,.12,0,.06-.06,.09-.13,.09-.11,0-.21,.02-.4,.05-.43,.08-.56,.34-.59,.88-.03,.49-.03,.92-.03,3.33v.32c0,.08,.05,.09,.1,.09h6.77s.1-.02,.1-.09v-.32c0-2.4,0-2.83-.03-3.33-.03-.52-.16-.77-.69-.88-.13-.03-.4-.05-.54-.05-.06,0-.13-.03-.13-.09,0-.09,.08-.12,.26-.12,.72,0,1.72,.05,1.8,.05s1.09-.05,1.56-.05c.18,0,.26,.03,.26,.12,0,.06-.06,.09-.13,.09-.11,0-.21,.02-.4,.05-.43,.08-.56,.34-.59,.88-.03,.49-.03,.92-.03,3.33v2.71Z"/><path class="cls-4" d="M160.9,96.61c0-2.4,0-2.83-.03-3.33-.03-.52-.16-.77-.69-.88-.13-.03-.4-.05-.54-.05-.06,0-.13-.03-.13-.09,0-.09,.08-.12,.26-.12,.37,0,.8,0,1.15,.02l.65,.03c.11,0,3.29,0,3.66-.02,.3-.02,.56-.05,.69-.08,.08-.02,.14-.08,.22-.08,.05,0,.06,.06,.06,.14,0,.11-.08,.29-.13,.72-.02,.16-.05,.83-.08,1.02-.02,.08-.05,.17-.11,.17-.1,0-.13-.08-.13-.2,0-.11-.02-.37-.1-.55-.11-.25-.27-.43-1.13-.52-.27-.03-2.01-.05-2.19-.05-.06,0-.1,.05-.1,.16v4.25c0,.11,.02,.16,.1,.16,.21,0,2.17,0,2.54-.03,.38-.03,.61-.06,.75-.22,.11-.12,.18-.2,.24-.2,.05,0,.08,.03,.08,.12s-.08,.35-.13,.86c-.03,.31-.06,.88-.06,.99,0,.12,0,.29-.11,.29-.08,0-.11-.06-.11-.14,0-.15,0-.31-.06-.51-.06-.22-.21-.48-.83-.54-.43-.05-2.01-.08-2.28-.08-.08,0-.11,.05-.11,.11v1.35c0,.52-.02,2.31,0,2.63,.05,1.06,.29,1.26,1.85,1.26,.42,0,1.12,0,1.53-.17,.42-.17,.61-.48,.72-1.11,.03-.17,.06-.23,.14-.23,.1,0,.1,.12,.1,.23,0,.12-.13,1.17-.21,1.49-.11,.4-.24,.4-.86,.4-1.2,0-2.08-.03-2.7-.05-.62-.03-1.01-.05-1.25-.05-.03,0-.3,0-.64,.02-.32,0-.69,.03-.93,.03-.18,0-.26-.03-.26-.12,0-.05,.03-.09,.13-.09,.14,0,.34-.03,.48-.06,.32-.06,.4-.4,.46-.85,.08-.65,.08-1.86,.08-3.34v-2.71Z"/><path class="cls-4" d="M173.63,96.61c0-2.4,0-2.83-.03-3.33-.03-.52-.16-.77-.69-.88-.13-.03-.4-.05-.54-.05-.06,0-.13-.03-.13-.09,0-.09,.08-.12,.26-.12,.72,0,1.69,.05,1.84,.05s1.1-.05,1.58-.05c.18,0,.26,.03,.26,.12,0,.06-.06,.09-.13,.09-.11,0-.21,.02-.4,.05-.43,.06-.56,.34-.59,.88-.03,.49-.03,.92-.03,3.33v2.16c0,2.22,.51,3.17,1.2,3.81,.78,.71,1.5,.85,2.41,.85,.97,0,1.93-.45,2.51-1.11,.73-.88,.93-2.19,.93-3.78v-1.93c0-2.4,0-2.83-.03-3.33-.03-.52-.16-.77-.69-.88-.13-.03-.4-.05-.54-.05-.06,0-.13-.03-.13-.09,0-.09,.08-.12,.26-.12,.72,0,1.6,.05,1.69,.05,.11,0,.86-.05,1.34-.05,.18,0,.26,.03,.26,.12,0,.06-.06,.09-.13,.09-.11,0-.21,.02-.4,.05-.43,.09-.56,.34-.59,.88-.03,.49-.03,.92-.03,3.33v1.65c0,1.66-.19,3.51-1.47,4.61-1.15,.99-2.35,1.14-3.29,1.14-.54,0-2.16-.06-3.29-1.09-.78-.72-1.39-1.8-1.39-4.05v-2.25Z"/><path class="cls-4" d="M187.25,101.69c.03,1.26,.19,1.67,.62,1.79,.3,.08,.65,.09,.8,.09,.08,0,.13,.03,.13,.09,0,.09-.1,.12-.29,.12-.91,0-1.55-.05-1.69-.05s-.81,.05-1.53,.05c-.16,0-.26-.02-.26-.12,0-.06,.05-.09,.13-.09,.13,0,.42-.02,.65-.09,.4-.11,.48-.56,.48-1.96l.02-8.83c0-.6,.05-.77,.18-.77s.4,.34,.56,.49c.24,.26,2.62,2.74,5.08,5.29,1.58,1.63,3.32,3.51,3.83,4.02l-.18-7.83c-.02-1-.13-1.34-.62-1.46-.29-.06-.65-.08-.78-.08-.11,0-.13-.05-.13-.11,0-.09,.13-.11,.32-.11,.72,0,1.49,.05,1.66,.05s.7-.05,1.36-.05c.18,0,.29,.02,.29,.11,0,.06-.06,.11-.18,.11-.08,0-.19,0-.38,.05-.53,.11-.59,.45-.59,1.37l-.03,9.03c0,1.02-.03,1.09-.14,1.09-.13,0-.32-.17-1.17-.99-.18-.15-2.48-2.42-4.17-4.18-1.85-1.93-3.66-3.87-4.17-4.42l.21,7.38Z"/><path class="cls-4" d="M202.4,99.32c0,1.48,0,2.7,.08,3.34,.05,.45,.14,.79,.62,.85,.22,.03,.57,.06,.72,.06,.1,0,.13,.05,.13,.09,0,.08-.08,.12-.26,.12-.88,0-1.88-.05-1.96-.05s-1.09,.05-1.56,.05c-.18,0-.26-.03-.26-.12,0-.05,.03-.09,.13-.09,.14,0,.33-.03,.48-.06,.32-.06,.4-.4,.46-.85,.08-.65,.08-1.86,.08-3.34v-2.71c0-2.4,0-2.83-.03-3.33-.03-.52-.19-.79-.54-.86-.18-.05-.38-.06-.5-.06-.06,0-.13-.03-.13-.09,0-.09,.08-.12,.26-.12,.53,0,1.53,.05,1.61,.05s1.09-.05,1.56-.05c.18,0,.26,.03,.26,.12,0,.06-.06,.09-.13,.09-.11,0-.21,.02-.4,.05-.43,.08-.56,.34-.59,.88-.03,.49-.03,.92-.03,3.33v2.71Z"/><path class="cls-4" d="M211.42,101.91c.93-2.07,3.07-7.44,3.42-8.55,.08-.23,.14-.45,.14-.59,0-.12-.05-.28-.21-.36-.19-.06-.43-.06-.61-.06-.1,0-.17-.02-.17-.09,0-.09,.1-.12,.35-.12,.64,0,1.37,.05,1.56,.05,.1,0,.78-.05,1.25-.05,.18,0,.27,.03,.27,.11s-.06,.11-.19,.11c-.11,0-.46,0-.77,.19-.21,.14-.45,.4-.88,1.45-.17,.43-.97,2.28-1.79,4.18-.97,2.25-1.69,3.91-2.06,4.67-.45,.92-.51,1.17-.67,1.17-.19,0-.27-.22-.57-.96l-3.91-9.45c-.35-.86-.59-1.03-1.15-1.19-.24-.06-.51-.06-.61-.06s-.13-.05-.13-.11c0-.09,.16-.11,.42-.11,.77,0,1.68,.05,1.87,.05,.16,0,.88-.05,1.49-.05,.29,0,.43,.03,.43,.11s-.05,.11-.16,.11c-.18,0-.46,.02-.61,.08-.18,.08-.21,.2-.21,.31,0,.2,.19,.68,.43,1.28l3.07,7.89Z"/><path class="cls-4" d="M219.83,96.61c0-2.4,0-2.83-.03-3.33-.03-.52-.16-.77-.69-.88-.13-.03-.4-.05-.54-.05-.06,0-.13-.03-.13-.09,0-.09,.08-.12,.26-.12,.37,0,.8,0,1.15,.02l.65,.03c.11,0,3.29,0,3.66-.02,.3-.02,.56-.05,.69-.08,.08-.02,.14-.08,.22-.08,.05,0,.06,.06,.06,.14,0,.11-.08,.29-.13,.72-.02,.16-.05,.83-.08,1.02-.02,.08-.05,.17-.11,.17-.1,0-.13-.08-.13-.2,0-.11-.02-.37-.1-.55-.11-.25-.27-.43-1.13-.52-.27-.03-2.01-.05-2.19-.05-.06,0-.1,.05-.1,.16v4.25c0,.11,.02,.16,.1,.16,.21,0,2.17,0,2.54-.03,.38-.03,.61-.06,.75-.22,.11-.12,.17-.2,.24-.2,.05,0,.08,.03,.08,.12s-.08,.35-.13,.86c-.03,.31-.06,.88-.06,.99,0,.12,0,.29-.11,.29-.08,0-.11-.06-.11-.14,0-.15,0-.31-.06-.51-.06-.22-.21-.48-.83-.54-.43-.05-2.01-.08-2.28-.08-.08,0-.11,.05-.11,.11v1.35c0,.52-.02,2.31,0,2.63,.05,1.06,.29,1.26,1.85,1.26,.42,0,1.12,0,1.53-.17s.61-.48,.72-1.11c.03-.17,.06-.23,.15-.23,.1,0,.1,.12,.1,.23,0,.12-.13,1.17-.21,1.49-.11,.4-.24,.4-.86,.4-1.2,0-2.08-.03-2.7-.05-.62-.03-1.01-.05-1.25-.05-.03,0-.3,0-.64,.02-.32,0-.69,.03-.93,.03-.17,0-.25-.03-.25-.12,0-.05,.03-.09,.13-.09,.14,0,.33-.03,.48-.06,.32-.06,.4-.4,.46-.85,.08-.65,.08-1.86,.08-3.34v-2.71Z"/><path class="cls-4" d="M228.58,96.61c0-2.4,0-2.83-.03-3.33-.03-.52-.16-.77-.69-.88-.13-.03-.4-.05-.54-.05-.06,0-.13-.03-.13-.09,0-.09,.08-.12,.25-.12,.72,0,1.73,.05,1.81,.05,.17,0,1.39-.05,1.88-.05,1.01,0,2.08,.09,2.92,.68,.4,.28,1.1,1.03,1.1,2.1,0,1.14-.49,2.28-1.93,3.56,1.31,1.62,2.39,2.99,3.32,3.94,.86,.88,1.55,1.05,1.95,1.11,.3,.05,.53,.05,.62,.05,.08,0,.14,.05,.14,.09,0,.09-.1,.12-.38,.12h-1.13c-.89,0-1.29-.08-1.71-.29-.69-.36-1.25-1.11-2.15-2.27-.67-.85-1.42-1.88-1.74-2.28-.06-.06-.11-.09-.21-.09l-1.96-.03c-.08,0-.11,.05-.11,.12v.37c0,1.48,0,2.7,.08,3.34,.05,.45,.14,.79,.62,.85,.22,.03,.57,.06,.72,.06,.1,0,.13,.05,.13,.09,0,.08-.08,.12-.25,.12-.88,0-1.88-.05-1.96-.05-.02,0-1.02,.05-1.5,.05-.18,0-.26-.03-.26-.12,0-.05,.03-.09,.13-.09,.14,0,.34-.03,.48-.06,.32-.06,.4-.4,.46-.85,.08-.65,.08-1.86,.08-3.34v-2.71Zm1.28,1.34c0,.08,.03,.14,.11,.19,.24,.14,.98,.25,1.68,.25,.38,0,.83-.05,1.2-.29,.56-.37,.98-1.2,.98-2.37,0-1.93-1.05-3.08-2.76-3.08-.48,0-.91,.05-1.07,.09-.08,.03-.13,.09-.13,.19v5.04Z"/><path class="cls-4" d="M240.04,103.59c-.22-.11-.24-.17-.24-.59,0-.77,.06-1.39,.08-1.63,.02-.17,.05-.25,.13-.25,.1,0,.11,.05,.11,.17,0,.14,0,.36,.05,.57,.24,1.14,1.29,1.57,2.36,1.57,1.53,0,2.28-1.06,2.28-2.05,0-1.06-.46-1.68-1.84-2.77l-.72-.57c-1.69-1.34-2.08-2.3-2.08-3.34,0-1.65,1.28-2.77,3.31-2.77,.62,0,1.09,.06,1.49,.15,.3,.06,.43,.08,.56,.08s.16,.03,.16,.11-.06,.59-.06,1.63c0,.25-.03,.35-.11,.35-.1,0-.11-.08-.13-.2-.02-.19-.11-.6-.21-.77-.1-.17-.53-.82-2-.82-1.1,0-1.96,.66-1.96,1.79,0,.88,.42,1.43,1.95,2.59l.45,.34c1.88,1.43,2.33,2.39,2.33,3.62,0,.63-.26,1.8-1.36,2.56-.69,.46-1.55,.65-2.41,.65-.75,0-1.49-.11-2.14-.42Z"/><path class="cls-4" d="M250.41,99.32c0,1.48,0,2.7,.08,3.34,.05,.45,.14,.79,.62,.85,.22,.03,.58,.06,.72,.06,.1,0,.13,.05,.13,.09,0,.08-.08,.12-.26,.12-.88,0-1.88-.05-1.96-.05s-1.09,.05-1.56,.05c-.17,0-.25-.03-.25-.12,0-.05,.03-.09,.13-.09,.15,0,.34-.03,.48-.06,.32-.06,.4-.4,.46-.85,.08-.65,.08-1.86,.08-3.34v-2.71c0-2.4,0-2.83-.03-3.33-.03-.52-.19-.79-.54-.86-.18-.05-.38-.06-.49-.06-.06,0-.13-.03-.13-.09,0-.09,.08-.12,.26-.12,.53,0,1.53,.05,1.61,.05s1.09-.05,1.56-.05c.18,0,.26,.03,.26,.12,0,.06-.06,.09-.13,.09-.11,0-.21,.02-.4,.05-.43,.08-.56,.34-.59,.88-.03,.49-.03,.92-.03,3.33v2.71Z"/><path class="cls-4" d="M258.84,99.32c0,1.48,0,2.7,.08,3.34,.05,.45,.14,.79,.62,.85,.22,.03,.58,.06,.72,.06,.1,0,.13,.05,.13,.09,0,.08-.08,.12-.26,.12-.88,0-1.88-.05-1.96-.05s-1.09,.05-1.56,.05c-.17,0-.26-.03-.26-.12,0-.05,.03-.09,.13-.09,.14,0,.34-.03,.48-.06,.32-.06,.4-.4,.46-.85,.08-.65,.08-1.86,.08-3.34v-6.52l-2.36,.03c-.99,.02-1.37,.12-1.63,.49-.18,.26-.22,.37-.27,.48-.05,.12-.1,.16-.16,.16-.05,0-.08-.05-.08-.14,0-.16,.32-1.48,.35-1.6,.03-.09,.1-.29,.16-.29,.11,0,.27,.15,.7,.19,.46,.05,1.07,.08,1.26,.08h5.99c.51,0,.88-.03,1.13-.08,.24-.03,.38-.08,.45-.08,.08,0,.08,.09,.08,.19,0,.46-.05,1.53-.05,1.7,0,.14-.05,.2-.11,.2-.08,0-.11-.05-.13-.26l-.02-.17c-.05-.46-.43-.82-1.96-.85l-2.01-.03v6.52Z"/><path class="cls-4" d="M268.74,99.8c0-.83-.16-1.17-.37-1.62-.11-.25-2.25-3.64-2.81-4.44-.4-.57-.8-.95-1.09-1.14-.24-.15-.54-.25-.69-.25-.08,0-.16-.03-.16-.11,0-.06,.06-.11,.21-.11,.3,0,1.5,.05,1.58,.05,.11,0,.72-.05,1.34-.05,.18,0,.21,.05,.21,.11s-.1,.08-.24,.14c-.13,.06-.21,.15-.21,.28,0,.19,.08,.37,.21,.6,.25,.45,2.65,4.42,2.94,4.87,.3-.65,2.33-4.02,2.65-4.53,.21-.32,.27-.59,.27-.79,0-.22-.06-.38-.26-.43-.14-.05-.24-.08-.24-.16,0-.06,.1-.09,.26-.09,.42,0,.93,.05,1.05,.05,.1,0,1.25-.05,1.55-.05,.11,0,.21,.03,.21,.09,0,.08-.08,.12-.21,.12-.17,0-.48,.06-.73,.22-.32,.18-.5,.37-.85,.79-.53,.62-2.76,4.24-3.05,4.9-.24,.56-.24,1.03-.24,1.54v1.32c0,.25,0,.89,.05,1.54,.03,.45,.17,.79,.65,.85,.22,.03,.58,.06,.72,.06,.1,0,.13,.05,.13,.09,0,.08-.08,.12-.26,.12-.88,0-1.88-.05-1.96-.05s-1.09,.05-1.56,.05c-.18,0-.26-.03-.26-.12,0-.05,.03-.09,.13-.09,.14,0,.34-.03,.48-.06,.32-.06,.46-.4,.49-.85,.05-.65,.05-1.29,.05-1.54v-1.32Z"/><path class="cls-4" d="M285.8,91.92c3.59,0,6.28,2.19,6.28,5.78s-2.52,6.3-6.37,6.3c-4.37,0-6.2-3.28-6.2-6.06,0-2.5,1.88-6.02,6.29-6.02Zm.34,11.49c1.44,0,4.41-.8,4.41-5.29,0-3.7-2.33-5.68-4.85-5.68-2.67,0-4.66,1.7-4.66,5.07,0,3.59,2.24,5.9,5.11,5.9Z"/><path class="cls-4" d="M294.86,96.61c0-2.4,0-2.83-.03-3.33-.03-.52-.16-.77-.69-.88-.13-.03-.4-.05-.54-.05-.06,0-.13-.03-.13-.09,0-.09,.08-.12,.25-.12,.37,0,.8,0,1.15,.02l.66,.03c.32,.02,3.56,0,3.93-.02,.3-.02,.56-.02,.7-.06,.1-.03,.16-.09,.22-.09s.1,.06,.1,.14c0,.11-.08,.29-.13,.72-.02,.16-.05,.83-.08,1.02-.02,.08-.05,.17-.13,.17s-.11-.08-.11-.18c0-.12-.05-.39-.14-.59-.1-.2-.46-.48-1.09-.49l-2.46-.05c-.1,0-.14,.05-.14,.17v4.25c0,.09,.02,.14,.11,.14l2.04-.02c.27,0,.5,0,.72-.02,.38-.03,.59-.08,.73-.28,.06-.08,.11-.15,.17-.15s.08,.05,.08,.12c0,.09-.08,.35-.13,.86-.03,.31-.06,.92-.06,1.03,0,.14,0,.29-.11,.29-.08,0-.11-.06-.11-.14-.02-.16-.03-.37-.1-.56-.08-.22-.34-.49-.83-.55-.4-.05-2.14-.05-2.41-.05-.08,0-.11,.03-.11,.14v1.31c0,1.48,0,2.7,.08,3.34,.05,.45,.14,.79,.62,.85,.22,.03,.57,.06,.72,.06,.1,0,.13,.05,.13,.09,0,.08-.08,.12-.25,.12-.88,0-1.88-.05-1.96-.05s-1.09,.05-1.56,.05c-.18,0-.26-.03-.26-.12,0-.05,.03-.09,.13-.09,.14,0,.34-.03,.48-.06,.32-.06,.4-.4,.46-.85,.08-.65,.08-1.86,.08-3.34v-2.71Z"/><path class="cls-4" d="M307.3,96.61c0-2.4,0-2.83-.03-3.33-.03-.52-.16-.77-.69-.88-.13-.03-.4-.05-.54-.05-.06,0-.13-.03-.13-.09,0-.09,.08-.12,.26-.12,.72,0,1.69,.05,1.84,.05s1.1-.05,1.58-.05c.17,0,.26,.03,.26,.12,0,.06-.06,.09-.13,.09-.11,0-.21,.02-.4,.05-.43,.06-.56,.34-.59,.88-.03,.49-.03,.92-.03,3.33v2.16c0,2.22,.51,3.17,1.2,3.81,.78,.71,1.5,.85,2.41,.85,.97,0,1.93-.45,2.51-1.11,.73-.88,.93-2.19,.93-3.78v-1.93c0-2.4,0-2.83-.03-3.33-.03-.52-.16-.77-.69-.88-.13-.03-.4-.05-.54-.05-.06,0-.13-.03-.13-.09,0-.09,.08-.12,.25-.12,.72,0,1.6,.05,1.69,.05,.11,0,.86-.05,1.34-.05,.17,0,.26,.03,.26,.12,0,.06-.06,.09-.13,.09-.11,0-.21,.02-.4,.05-.43,.09-.56,.34-.59,.88-.03,.49-.03,.92-.03,3.33v1.65c0,1.66-.19,3.51-1.47,4.61-1.15,.99-2.35,1.14-3.29,1.14-.54,0-2.16-.06-3.29-1.09-.78-.72-1.39-1.8-1.39-4.05v-2.25Z"/><path class="cls-4" d="M324.71,99.32c0,1.48,0,2.7,.08,3.34,.05,.45,.14,.79,.62,.85,.22,.03,.58,.06,.72,.06,.1,0,.13,.05,.13,.09,0,.08-.08,.12-.26,.12-.88,0-1.88-.05-1.96-.05s-1.09,.05-1.56,.05c-.17,0-.25-.03-.25-.12,0-.05,.03-.09,.13-.09,.15,0,.34-.03,.48-.06,.32-.06,.4-.4,.46-.85,.08-.65,.08-1.86,.08-3.34v-6.52l-2.36,.03c-.99,.02-1.37,.12-1.63,.49-.18,.26-.22,.37-.27,.48-.05,.12-.1,.16-.16,.16-.05,0-.08-.05-.08-.14,0-.16,.32-1.48,.35-1.6,.03-.09,.1-.29,.16-.29,.11,0,.27,.15,.7,.19,.46,.05,1.07,.08,1.26,.08h5.99c.51,0,.88-.03,1.13-.08,.24-.03,.38-.08,.45-.08,.08,0,.08,.09,.08,.19,0,.46-.05,1.53-.05,1.7,0,.14-.05,.2-.11,.2-.08,0-.11-.05-.13-.26l-.02-.17c-.05-.46-.43-.82-1.96-.85l-2.01-.03v6.52Z"/><path class="cls-4" d="M333.78,92.52c.19-.51,.25-.6,.35-.6s.16,.08,.35,.55c.24,.59,2.75,6.95,3.72,9.29,.57,1.37,1.04,1.62,1.37,1.71,.24,.08,.48,.09,.64,.09,.1,0,.16,.02,.16,.09,0,.09-.14,.12-.32,.12-.24,0-1.41,0-2.51-.03-.3-.02-.48-.02-.48-.11,0-.06,.05-.09,.11-.11,.1-.03,.19-.17,.1-.42l-1.49-3.79c-.03-.06-.06-.09-.14-.09h-3.43c-.08,0-.13,.05-.16,.12l-.96,2.73c-.14,.39-.22,.76-.22,1.03,0,.31,.34,.45,.61,.45h.16c.11,0,.16,.03,.16,.09,0,.09-.1,.12-.24,.12-.38,0-1.07-.05-1.25-.05s-1.05,.05-1.81,.05c-.21,0-.3-.03-.3-.12,0-.06,.06-.09,.14-.09,.11,0,.34-.02,.46-.03,.73-.09,1.05-.68,1.34-1.45l3.63-9.57Zm1.66,6.16c.08,0,.08-.05,.06-.11l-1.52-4.16c-.08-.23-.16-.23-.24,0l-1.4,4.16c-.03,.08,0,.11,.05,.11h3.05Z"/><path class="cls-4" d="M352.26,99.32c0,1.48,0,2.7,.08,3.34,.05,.45,.14,.79,.62,.85,.22,.03,.57,.06,.72,.06,.1,0,.13,.05,.13,.09,0,.08-.08,.12-.25,.12-.88,0-1.88-.05-1.96-.05s-1.09,.05-1.56,.05c-.18,0-.26-.03-.26-.12,0-.05,.03-.09,.13-.09,.14,0,.34-.03,.48-.06,.32-.06,.4-.4,.46-.85,.08-.65,.08-1.86,.08-3.34v-1.62c0-.06-.05-.09-.1-.09h-6.77s-.1,.02-.1,.09v1.62c0,1.48,0,2.7,.08,3.34,.05,.45,.14,.79,.62,.85,.22,.03,.58,.06,.72,.06,.1,0,.13,.05,.13,.09,0,.08-.08,.12-.26,.12-.88,0-1.88-.05-1.96-.05s-1.09,.05-1.56,.05c-.18,0-.26-.03-.26-.12,0-.05,.03-.09,.13-.09,.14,0,.34-.03,.48-.06,.32-.06,.4-.4,.46-.85,.08-.65,.08-1.86,.08-3.34v-2.71c0-2.4,0-2.83-.03-3.33-.03-.52-.16-.77-.69-.88-.13-.03-.4-.05-.54-.05-.06,0-.13-.03-.13-.09,0-.09,.08-.12,.26-.12,.72,0,1.72,.05,1.8,.05s1.09-.05,1.56-.05c.18,0,.26,.03,.26,.12,0,.06-.06,.09-.13,.09-.11,0-.21,.02-.4,.05-.43,.08-.56,.34-.59,.88-.03,.49-.03,.92-.03,3.33v.32c0,.08,.05,.09,.1,.09h6.77s.1-.02,.1-.09v-.32c0-2.4,0-2.83-.03-3.33-.03-.52-.16-.77-.69-.88-.13-.03-.4-.05-.54-.05-.06,0-.13-.03-.13-.09,0-.09,.08-.12,.25-.12,.72,0,1.73,.05,1.81,.05s1.09-.05,1.56-.05c.17,0,.26,.03,.26,.12,0,.06-.06,.09-.13,.09-.11,0-.21,.02-.4,.05-.43,.08-.56,.34-.59,.88-.03,.49-.03,.92-.03,3.33v2.71Z"/></g><rect class="cls-2" x="133.37" y="83.8" width="370.2" height="1.28"/><g><path class="cls-1" d="M134.72,5.31c1.13-.17,2.59-.27,4.14-.27,2.57,0,4.24,.45,5.55,1.4,1.41,1.01,2.29,2.62,2.29,4.93,0,2.51-.95,4.23-2.25,5.3-1.43,1.15-3.6,1.69-6.25,1.69-1.59,0-2.71-.1-3.48-.19V5.31Zm3.08,10.68c.26,.06,.68,.06,1.07,.06,2.78,.02,4.59-1.46,4.59-4.58,.02-2.72-1.63-4.16-4.26-4.16-.68,0-1.13,.06-1.39,.12V15.99Z"/><path class="cls-1" d="M151.17,14.42c.1,1.22,1.35,1.81,2.78,1.81,1.05,0,1.89-.14,2.72-.39l.4,2c-1.01,.39-2.23,.58-3.56,.58-3.34,0-5.25-1.86-5.25-4.84,0-2.41,1.55-5.07,4.97-5.07,3.18,0,4.38,2.39,4.38,4.74,0,.5-.06,.95-.1,1.17h-6.33Zm3.6-2.02c0-.72-.32-1.92-1.73-1.92-1.29,0-1.81,1.13-1.89,1.92h3.62Z"/><path class="cls-1" d="M159.64,11.91c0-1.24-.04-2.31-.08-3.19h2.65l.14,1.32h.04c.72-1.01,1.85-1.53,3.28-1.53,2.15,0,4.08,1.81,4.08,4.84,0,3.46-2.27,5.09-4.46,5.09-1.19,0-2.11-.47-2.55-1.09h-.04v4.72h-3.06V11.91Zm3.06,2.23c0,.23,.02,.45,.06,.62,.2,.8,.9,1.4,1.79,1.4,1.33,0,2.11-1.07,2.11-2.68,0-1.52-.7-2.66-2.07-2.66-.87,0-1.63,.62-1.83,1.5-.04,.16-.06,.35-.06,.52v1.3Z"/><path class="cls-1" d="M177.46,18.23l-.18-.95h-.06c-.64,.76-1.65,1.17-2.82,1.17-1.99,0-3.18-1.4-3.18-2.91,0-2.47,2.29-3.65,5.77-3.63v-.14c0-.5-.28-1.22-1.79-1.22-1.01,0-2.07,.33-2.72,.72l-.56-1.9c.68-.37,2.03-.84,3.82-.84,3.28,0,4.32,1.86,4.32,4.1v3.3c0,.91,.04,1.79,.14,2.31h-2.75Zm-.36-4.49c-1.61-.02-2.86,.35-2.86,1.5,0,.76,.52,1.13,1.21,1.13,.76,0,1.39-.49,1.59-1.09,.04-.16,.06-.33,.06-.5v-1.03Z"/><path class="cls-1" d="M182.69,11.85c0-1.4-.04-2.31-.08-3.13h2.63l.1,1.75h.08c.5-1.38,1.71-1.96,2.65-1.96,.28,0,.42,0,.64,.04v2.78c-.22-.04-.48-.08-.82-.08-1.13,0-1.89,.58-2.09,1.5-.04,.19-.06,.43-.06,.66v4.82h-3.06v-6.37Z"/><path class="cls-1" d="M194.37,6.01v2.72h2.19v2.18h-2.19v3.44c0,1.15,.28,1.67,1.21,1.67,.38,0,.68-.04,.9-.08l.02,2.23c-.4,.16-1.13,.25-1.99,.25-.99,0-1.81-.33-2.29-.82-.56-.56-.84-1.48-.84-2.82v-3.89h-1.31v-2.18h1.31v-2.06l3-.66Z"/><path class="cls-1" d="M198.53,11.76c0-1.19-.04-2.19-.08-3.03h2.57l.14,1.28h.06c.42-.6,1.29-1.5,2.98-1.5,1.27,0,2.27,.62,2.69,1.61h.04c.36-.49,.8-.87,1.27-1.15,.54-.31,1.15-.47,1.87-.47,1.89,0,3.32,1.28,3.32,4.12v5.59h-2.98v-5.17c0-1.38-.46-2.18-1.45-2.18-.7,0-1.21,.47-1.41,1.03-.08,.21-.12,.52-.12,.76v5.56h-2.98v-5.32c0-1.2-.44-2.02-1.41-2.02-.78,0-1.25,.58-1.43,1.07-.1,.23-.12,.5-.12,.74v5.54h-2.98v-6.47Z"/><path class="cls-1" d="M218.39,14.42c.1,1.22,1.35,1.81,2.78,1.81,1.05,0,1.89-.14,2.72-.39l.4,2c-1.01,.39-2.23,.58-3.56,.58-3.34,0-5.25-1.86-5.25-4.84,0-2.41,1.55-5.07,4.97-5.07,3.18,0,4.38,2.39,4.38,4.74,0,.5-.06,.95-.1,1.17h-6.33Zm3.6-2.02c0-.72-.32-1.92-1.73-1.92-1.29,0-1.81,1.13-1.89,1.92h3.62Z"/><path class="cls-1" d="M226.85,11.76c0-1.19-.04-2.19-.08-3.03h2.65l.14,1.3h.06c.4-.6,1.41-1.52,3.04-1.52,2.01,0,3.52,1.28,3.52,4.08v5.63h-3.06v-5.26c0-1.22-.44-2.06-1.55-2.06-.84,0-1.35,.56-1.55,1.11-.08,.17-.12,.47-.12,.74v5.48h-3.06v-6.47Z"/><path class="cls-1" d="M242.14,6.01v2.72h2.19v2.18h-2.19v3.44c0,1.15,.28,1.67,1.21,1.67,.38,0,.68-.04,.9-.08l.02,2.23c-.4,.16-1.13,.25-1.99,.25-.99,0-1.81-.33-2.29-.82-.56-.56-.84-1.48-.84-2.82v-3.89h-1.31v-2.18h1.31v-2.06l3-.66Z"/><path class="cls-1" d="M260.28,13.37c0,3.48-2.55,5.07-5.19,5.07-2.88,0-5.09-1.83-5.09-4.9s2.09-5.03,5.25-5.03,5.03,2,5.03,4.86Zm-7.12,.1c0,1.63,.7,2.85,2.01,2.85,1.19,0,1.95-1.15,1.95-2.85,0-1.42-.56-2.86-1.95-2.86-1.47,0-2.01,1.46-2.01,2.86Z"/><path class="cls-1" d="M262.71,18.23v-7.32h-1.29v-2.18h1.29v-.37c0-1.15,.36-2.41,1.25-3.19,.76-.7,1.83-.95,2.72-.95,.68,0,1.21,.08,1.63,.19l-.12,2.27c-.26-.08-.58-.14-.99-.14-1.01,0-1.43,.76-1.43,1.69v.49h1.97v2.18h-1.95v7.32h-3.08Z"/></g></svg>